<svg width="16" height="14" viewBox="0 0 16 14" fill="black" xmlns="http://www.w3.org/2000/svg">
<path fill-rule="evenodd" clip-rule="evenodd" d="M16 5V12.25C16 12.7292 15.8281 13.1406 15.4844 13.4844C15.1406 13.8281 14.7292 14 14.25 14H1.75C1.27083 14 0.859377 13.8281 0.515625 13.4844C0.171873 13.1406 0 12.7292 0 12.25V5V4V1.75C0 1.27083 0.171873 0.859377 0.515625 0.515625C0.859377 0.171873 1.27083 0 1.75 0H4.25C4.72917 0 5.14062 0.171873 5.48438 0.515625C5.82813 0.859377 6 1.27083 6 1.75V2H14.25C14.7292 2 15.1406 2.17187 15.4844 2.51562C15.8281 2.85938 16 3.27083 16 3.75V4V5ZM15 5V12.25C15 12.4583 14.9271 12.6354 14.7812 12.7812C14.6354 12.9271 14.4583 13 14.25 13H1.75C1.54167 13 1.36458 12.9271 1.21875 12.7812C1.07292 12.6354 1 12.4583 1 12.25V5H15ZM15 4V3.75C15 3.54167 14.9271 3.36458 14.7812 3.21875C14.6354 3.07292 14.4583 3 14.25 3H5.75C5.54167 3 5.36458 2.92708 5.21875 2.78125C5.07292 2.63542 5 2.45833 5 2.25V1.75C5 1.54167 4.92708 1.36458 4.78125 1.21875C4.63542 1.07292 4.45833 1 4.25 1H1.75C1.54167 1 1.36458 1.07292 1.21875 1.21875C1.07292 1.36458 1 1.54167 1 1.75V4H15Z" />
</svg>
